<?xml version="1.0" standalone="no"?>
<!DOCTYPE svg PUBLIC "-//W3C//DTD SVG 20010904//EN"
 "http://www.w3.org/TR/2001/REC-SVG-20010904/DTD/svg10.dtd">
<svg version="1.0" xmlns="http://www.w3.org/2000/svg"
 width="535.000000pt" height="535.000000pt" viewBox="0 0 535.000000 535.000000"
 preserveAspectRatio="xMidYMid meet">
<metadata>
Created by potrace 1.14, written by Peter Selinger 2001-2017
</metadata>
<g transform="translate(0.000000,535.000000) scale(0.100000,-0.100000)"
fill="#000000" stroke="none">
<path d="M2864 5293 c-54 -45 -69 -134 -35 -209 l19 -41 -162 1 c-155 1 -327
-8 -357 -18 -8 -3 -32 -7 -54 -10 -22 -2 -47 -7 -55 -10 -13 -4 -31 -8 -105
-21 -11 -2 -20 -4 -20 -5 0 -1 -8 -4 -50 -14 -11 -2 -33 -9 -50 -16 -16 -6
-32 -11 -35 -11 -11 2 -135 -42 -145 -50 -5 -5 -15 -9 -21 -9 -7 0 -56 -20
-109 -45 -52 -24 -99 -45 -103 -45 -4 -1 -14 -7 -22 -14 -8 -6 -28 -18 -45
-26 -62 -30 -275 -174 -331 -225 -7 -5 -29 -23 -50 -40 -124 -99 -306 -305
-417 -472 -53 -81 -165 -274 -169 -293 -6 -29 -12 -40 -21 -40 -6 0 -7 -3 -4
-6 3 -4 1 -16 -5 -28 -7 -11 -13 -27 -14 -35 -2 -8 -9 -18 -16 -22 -7 -5 -10
-9 -7 -9 4 0 -9 -43 -27 -97 -41 -115 -71 -229 -90 -338 -1 -11 -6 -36 -9 -55
-4 -19 -8 -48 -9 -65 -2 -16 -4 -30 -5 -30 -12 0 -18 -364 -7 -485 19 -219 86
-497 161 -667 13 -28 21 -54 17 -57 -3 -3 0 -6 6 -6 7 0 12 -4 12 -10 0 -44
227 -429 267 -453 7 -4 13 -13 13 -19 0 -29 242 -280 373 -386 167 -136 421
-287 592 -351 33 -13 69 -27 80 -32 11 -4 39 -13 62 -20 39 -11 49 -21 120
-128 42 -64 80 -118 85 -119 4 -2 8 -10 8 -18 0 -7 9 -19 20 -26 11 -7 20 -16
20 -20 0 -9 39 -56 82 -99 15 -15 24 -29 22 -32 -6 -6 78 -47 97 -47 8 0 33 9
56 19 42 20 70 51 76 86 1 11 5 25 9 30 9 16 -1 140 -12 143 -5 2 -10 8 -10
12 0 5 -18 27 -40 49 l-41 40 98 -5 c54 -3 110 -5 126 -5 34 1 53 1 70 1 52
-2 284 18 297 25 3 2 26 6 50 9 90 13 296 65 355 91 17 7 41 16 55 20 34 9
194 77 200 84 3 3 11 7 18 9 35 7 296 165 354 215 12 9 24 17 27 17 3 0 20 13
37 28 18 15 56 47 85 72 79 67 203 194 272 280 34 41 64 77 67 80 3 3 10 12
15 21 6 9 26 41 46 70 55 81 119 188 119 199 0 6 4 10 10 10 5 0 9 3 8 8 -1 4
12 35 30 70 17 34 32 69 32 77 0 8 4 15 10 15 5 0 9 3 8 8 -1 4 13 45 31 92
31 78 75 217 86 265 2 11 7 31 10 45 3 14 8 41 11 60 8 48 12 65 14 65 1 0 3
16 5 35 2 19 4 35 5 35 6 0 21 219 22 320 1 85 -7 214 -16 280 -14 100 -28
180 -40 235 -3 14 -8 35 -10 48 -29 142 -146 432 -245 606 -71 124 -218 325
-295 402 -17 18 -56 58 -87 90 -32 33 -68 68 -81 79 -13 11 -49 41 -79 67 -61
51 -309 222 -309 212 0 -3 -12 4 -26 15 -15 12 -33 21 -40 21 -8 0 -14 5 -14
11 0 5 -4 7 -10 4 -5 -3 -10 -1 -10 4 0 6 -5 11 -12 11 -6 0 -41 14 -77 31
-36 17 -77 35 -91 41 -14 6 -34 15 -45 19 -49 22 -195 67 -195 61 0 -4 -6 2
-13 14 -38 64 -60 94 -68 94 -5 0 -9 6 -9 13 0 11 -35 56 -85 108 -8 9 -15 18
-15 22 0 3 -21 27 -47 53 -46 47 -50 48 -113 51 -51 3 -70 0 -86 -14z m-50
-867 c43 -4 88 -10 100 -12 12 -2 37 -7 56 -10 19 -3 69 -15 110 -26 41 -11
80 -21 85 -22 6 -2 19 -6 30 -10 11 -5 45 -17 75 -28 108 -40 109 -41 128 -88
9 -25 17 -48 18 -52 1 -5 3 -11 4 -15 1 -5 2 -11 1 -15 0 -5 3 -8 8 -8 6 0 10
-8 9 -17 0 -10 3 -27 5 -38 3 -11 12 -44 19 -72 7 -29 15 -53 19 -53 3 0 5
-10 4 -21 -1 -12 5 -54 12 -93 24 -126 28 -393 9 -545 -10 -73 -20 -139 -23
-147 -3 -8 -19 -14 -40 -14 -51 0 -171 -20 -217 -36 -55 -20 -165 -92 -196
-128 -14 -16 -33 -38 -42 -48 -10 -10 -18 -22 -18 -26 0 -5 -9 -27 -20 -49
-30 -64 -116 -357 -133 -458 -18 -108 -18 -102 -18 -190 -1 -108 2 -145 13
-145 5 0 7 -4 4 -9 -11 -18 18 -77 56 -113 22 -21 42 -37 46 -36 4 1 23 -3 43
-9 32 -9 108 -9 149 0 8 2 33 7 55 11 47 10 245 103 245 117 0 5 7 9 15 9 9 0
18 7 21 15 4 8 12 15 18 15 7 0 34 20 59 44 26 24 47 42 47 39 0 -2 12 10 27
29 15 18 38 43 51 56 13 12 19 22 15 22 -4 0 0 5 10 11 9 5 17 16 17 24 0 7 4
15 8 17 13 5 67 100 90 158 28 72 39 119 38 153 -1 15 2 27 6 27 7 0 3 110 -7
150 -3 14 -8 36 -11 50 -3 13 -9 29 -13 35 -5 5 -12 24 -15 40 -6 26 -48 85
-86 120 -6 6 -19 18 -28 28 -9 9 -20 17 -24 17 -16 0 -47 34 -40 44 3 6 8 18
10 26 7 31 13 66 17 90 1 14 4 26 5 28 1 1 4 11 5 22 1 11 3 21 5 23 6 8 21
122 23 187 1 25 4 50 7 55 7 13 3 273 -5 345 -3 30 -8 73 -11 95 -3 22 -5 54
-6 70 -1 17 -6 33 -12 37 -8 5 -7 8 1 8 18 0 146 -104 222 -182 86 -87 221
-257 221 -277 0 -6 5 -11 10 -11 6 0 10 -4 10 -9 0 -4 20 -44 44 -87 48 -84
119 -244 109 -244 -3 0 -1 -6 5 -12 10 -13 60 -185 67 -235 2 -15 7 -39 10
-53 19 -90 27 -377 12 -485 -8 -53 -31 -186 -36 -202 -1 -2 -1 -5 -2 -8 0 -2
-8 -33 -19 -67 -35 -121 -60 -180 -168 -393 -9 -16 -18 -32 -22 -35 -3 -3 -17
-23 -30 -44 -13 -22 -51 -73 -84 -115 -229 -290 -562 -506 -916 -594 -166 -41
-244 -51 -420 -50 -114 0 -245 7 -245 13 0 1 -11 3 -25 4 -44 6 -105 17 -120
23 -8 3 -26 7 -40 9 -36 5 -248 81 -275 98 -20 13 -41 69 -38 104 0 6 -2 12
-6 12 -4 0 -8 6 -9 13 0 6 -3 23 -7 37 -4 14 -8 34 -9 45 -1 11 -4 25 -7 30
-3 6 -6 25 -8 43 l-3 33 41 -26 c123 -77 325 -155 471 -180 19 -4 49 -9 65
-12 41 -7 348 -12 359 -6 5 3 31 7 58 9 27 2 54 6 60 10 5 4 27 9 47 11 20 3
42 10 49 15 6 6 12 8 12 4 0 -9 139 43 235 89 217 105 405 267 543 467 18 26
32 51 32 56 0 6 4 12 9 14 11 4 91 158 91 175 0 7 5 13 12 13 6 0 9 3 5 6 -3
4 0 22 9 42 25 60 9 45 -22 -21 -16 -34 -32 -63 -36 -65 -5 -2 -8 -10 -8 -18
0 -8 -5 -14 -10 -14 -6 0 -9 -4 -8 -8 2 -4 -25 -46 -58 -93 -121 -165 -296
-317 -484 -416 -44 -23 -83 -42 -85 -42 -3 -1 -18 -7 -34 -15 -16 -9 -31 -12
-35 -9 -3 4 -6 1 -6 -6 0 -7 -5 -9 -10 -6 -6 4 -16 3 -23 -3 -18 -13 -140 -46
-214 -57 -18 -3 -50 -8 -70 -11 -58 -10 -271 -11 -333 -2 -30 5 -71 11 -90 13
-51 8 -146 33 -215 57 -100 35 -295 132 -303 151 -2 4 -10 7 -18 7 -8 0 -14 4
-14 8 0 5 -10 14 -22 21 -22 11 -23 16 -20 139 4 177 6 202 12 202 3 0 6 17 6
38 2 74 8 85 45 88 63 4 101 14 147 39 56 29 76 46 125 106 36 45 82 153 72
169 -3 5 0 10 5 12 6 2 12 10 14 18 1 8 8 25 14 38 7 12 9 22 5 22 -4 0 -3 4
2 8 6 4 25 37 44 75 18 37 44 83 57 102 13 20 30 48 38 63 8 15 26 40 39 56
14 17 24 33 21 38 -3 4 -1 8 3 8 5 0 22 20 38 46 16 25 39 57 52 72 13 15 23
33 23 40 0 38 -136 -87 -240 -220 -25 -32 -48 -58 -53 -58 -4 0 -5 -4 -2 -10
3 -5 1 -10 -4 -10 -6 0 -11 -7 -11 -15 0 -9 -7 -18 -15 -21 -8 -4 -13 -10 -10
-14 3 -5 1 -11 -5 -15 -20 -12 -134 -207 -126 -216 2 -2 -4 -12 -13 -21 -16
-16 -19 -16 -40 -2 -16 12 -19 19 -12 28 6 7 8 16 4 19 -3 4 -1 7 6 7 7 0 11
6 8 14 -3 8 1 20 9 27 8 6 12 14 10 17 -6 6 54 125 88 175 14 21 26 40 26 42
0 8 64 100 72 103 4 2 8 10 8 17 0 7 3 15 8 17 4 2 21 23 37 48 17 25 38 51
48 58 9 7 17 19 17 27 0 7 4 15 9 17 13 4 101 118 101 129 0 53 -235 -177
-387 -379 -10 -13 -24 -30 -30 -37 -7 -8 -13 -16 -13 -19 0 -2 -17 -31 -38
-63 -21 -32 -47 -76 -57 -98 -11 -22 -23 -41 -27 -43 -5 -2 -8 -10 -8 -18 0
-18 -5 -18 -34 2 l-24 15 48 97 c44 91 125 231 139 242 3 3 22 28 41 55 19 28
38 52 42 53 4 2 8 10 8 17 0 7 4 15 8 17 4 2 23 23 42 48 19 25 44 53 54 62
10 10 16 18 12 18 -4 0 6 13 21 28 46 46 123 136 123 145 0 35 -135 -68 -258
-198 -141 -149 -268 -315 -347 -451 -36 -64 -42 -70 -63 -63 -12 5 -22 14 -22
21 0 36 194 366 222 376 4 2 8 8 8 13 0 10 24 41 54 70 11 11 16 19 12 19 -4
0 8 14 26 30 18 17 29 30 24 30 -4 0 6 12 23 27 17 15 31 31 31 35 0 4 21 29
48 56 165 170 188 202 135 181 -75 -28 -343 -282 -482 -457 -84 -107 -183
-249 -179 -256 2 -2 -6 -13 -16 -25 -11 -12 -16 -21 -11 -21 4 0 1 -7 -6 -16
-12 -15 -19 -34 -21 -61 -1 -7 -6 -13 -11 -13 -6 0 -8 -3 -5 -6 4 -3 2 -20 -4
-37 -15 -51 -12 -197 5 -244 9 -22 13 -44 10 -47 -4 -3 -1 -6 5 -6 7 0 12 -7
12 -15 0 -8 3 -15 8 -15 4 0 16 -13 27 -30 11 -16 30 -35 43 -42 26 -14 26 -6
-4 -155 -3 -16 -7 -41 -9 -58 -3 -16 -8 -46 -13 -65 -5 -20 -8 -43 -6 -53 1
-9 -3 -17 -9 -17 -14 0 -127 133 -127 149 0 6 -4 11 -8 11 -5 0 -19 19 -32 43
-13 23 -26 44 -30 47 -9 7 -83 162 -105 220 -66 171 -93 333 -89 524 1 77 5
155 8 171 15 91 21 118 40 179 22 73 0 41 -28 -39 -52 -150 -67 -243 -69 -435
-2 -171 4 -227 39 -372 1 -5 2 -9 4 -10 1 -2 3 -11 5 -20 17 -88 110 -288 188
-404 58 -87 87 -123 156 -193 l44 -46 3 -115 c1 -63 5 -137 8 -163 l6 -49 -53
38 c-28 20 -59 43 -67 49 -42 36 -228 224 -245 248 -11 16 -28 38 -39 50 -32
38 -76 105 -76 116 0 6 -4 11 -8 11 -10 0 -114 200 -137 265 -10 28 -22 55
-26 60 -4 6 -10 22 -12 35 -3 14 -12 45 -20 70 -17 52 -24 81 -33 136 -3 21
-8 42 -11 47 -2 4 -6 26 -9 50 -2 23 -6 67 -9 97 -9 83 -9 185 0 280 9 110 13
145 15 145 1 0 3 11 6 25 2 14 9 49 15 77 6 29 11 56 11 60 0 7 7 27 34 98 4
11 8 27 10 37 5 24 81 194 100 223 9 14 12 25 8 25 -5 0 -4 4 1 8 6 4 32 42
58 85 26 43 52 84 57 90 106 135 194 228 291 309 84 71 107 88 118 88 6 0 11
5 11 10 0 6 4 10 9 10 5 0 37 18 70 40 91 61 317 163 390 176 13 3 32 9 43 15
10 5 18 7 18 3 0 -3 7 -1 15 6 8 7 15 10 15 7 0 -3 19 0 43 5 72 17 81 18 127
24 159 21 258 23 404 10z"/>
</g>
</svg>
